<?xml version="1.0" encoding="UTF-8"?>
<svg xmlns="http://www.w3.org/2000/svg" width="187.719" height="42.8" viewBox="0 0 187.719 42.8">
  <g id="Group_16894" data-name="Group 16894" transform="translate(-6463 -7696)">
    <g id="vayana-new-logo-01_1_" data-name="vayana-new-logo-01 (1)" transform="translate(6463 7696)">
      <g id="Group_16887" data-name="Group 16887">
        <g id="Group_16886" data-name="Group 16886">
          <g id="Group_16885" data-name="Group 16885">
            <path id="Path_42043" data-name="Path 42043" d="M56.6,10.4h4.3l6.7,17.2,6.7-17.2h4.3L69.3,32.9H65.8Z" transform="translate(0 -0.4)" fill="#293978"></path>
            <path id="Path_42044" data-name="Path 42044" d="M84.7,10.2h3.6l9.8,22.5H94l-2.3-5.4H81.1l-2.3,5.4h-4Zm5.6,13.6-3.9-9-3.8,9Z" transform="translate(0 -0.2)" fill="#293978"></path>
            <path id="Path_42045" data-name="Path 42045" d="M102.7,23.9,93.8,10.3h4.7l6.2,9.9,6.3-9.9h4.5l-8.9,13.5v8.9h-4V23.9Z" transform="translate(0 -0.3)" fill="#293978"></path>
            <path id="Path_42046" data-name="Path 42046" d="M121.1,10.2h3.6l9.8,22.5h-4.2L128,27.3H117.4l-2.3,5.4h-4Zm5.7,13.6-3.9-9-3.8,9Z" transform="translate(0 -0.2)" fill="#293978"></path>
            <path id="Path_42047" data-name="Path 42047" d="M137.2,10.4h3.6l12,15.5V10.4h3.9V32.8h-3.3L141.1,16.9V32.8h-3.9Z" transform="translate(0 -0.4)" fill="#293978"></path>
            <path id="Path_42048" data-name="Path 42048" d="M169.1,10.2h3.6l9.8,22.5h-4.2L176,27.3H165.4l-2.3,5.4h-4Zm5.6,13.6-3.9-9-3.8,9Z" transform="translate(0 -0.2)" fill="#293978"></path>
          </g>
        </g>
      </g>
      <g id="Group_16891" data-name="Group 16891">
        <g id="Group_16890" data-name="Group 16890">
          <g id="Group_16889" data-name="Group 16889">
            <g id="Group_16888" data-name="Group 16888">
              <path id="Path_42049" data-name="Path 42049" d="M27,42.8l1.7-2.6L3.2,0H0Z" fill="#cd2627" fill-rule="evenodd"></path>
              <path id="Path_42050" data-name="Path 42050" d="M30.7,37l1.6-2.6L10.5,0H7.2Z" fill="#cd2627" fill-rule="evenodd"></path>
              <path id="Path_42051" data-name="Path 42051" d="M34.5,31l1.6-2.6L18.1,0H14.8Z" fill="#cd2627" fill-rule="evenodd"></path>
              <path id="Path_42052" data-name="Path 42052" d="M25.4,40.2,27,42.8,54.1,0H50.8Z" fill="#293978" fill-rule="evenodd"></path>
              <path id="Path_42053" data-name="Path 42053" d="M21.7,34.3l1.6,2.5L46.6,0H43.3Z" fill="#293978" fill-rule="evenodd"></path>
              <path id="Path_42054" data-name="Path 42054" d="M17.9,28.3l1.6,2.5L39,0H35.7Z" fill="#293978" fill-rule="evenodd"></path>
            </g>
          </g>
        </g>
      </g>
    </g>
    <g id="Group_16893" data-name="Group 16893" transform="translate(-79.759 87.061)">
      <g id="Group_16892" data-name="Group 16892" transform="translate(6721.816 7618.939)">
        <path id="Path_42095" data-name="Path 42095" d="M231.072-85.213H229.7v-.743h3.568v.743h-1.375v3.594h-.818Z" transform="translate(-229.7 85.956)" fill="#293978"></path>
        <path id="Path_42096" data-name="Path 42096" d="M237.855-84.76l-1.412,1.883h-.162l-1.38-1.89v3.153h-.818v-4.336h.941l1.357,1.866,1.358-1.866h.935v4.336h-.818Z" transform="translate(-230.013 85.955)" fill="#293978"></path>
      </g>
    </g>
  </g>
</svg>
